<svg width="31" height="31" viewBox="0 0 31 31" fill="none" xmlns="http://www.w3.org/2000/svg">
<path d="M15.077 24.2354C10.4395 24.0167 6.74996 20.1958 6.74996 15.5C6.74996 10.6729 10.6729 6.74999 15.5 6.74999C20.1958 6.74999 24.0166 10.4396 24.2354 15.0771L21.1729 14.1583C20.575 11.5771 18.2562 9.66666 15.5 9.66666C12.277 9.66666 9.66663 12.2771 9.66663 15.5C9.66663 18.2562 11.577 20.575 14.1583 21.1729L15.077 24.2354ZM30.0833 15.5C30.0833 15.9375 30.0687 16.375 30.025 16.8125L27.152 15.9521C27.1666 15.8062 27.1666 15.6458 27.1666 15.5C27.1666 9.05416 21.9458 3.83332 15.5 3.83332C9.05413 3.83332 3.83329 9.05416 3.83329 15.5C3.83329 21.9458 9.05413 27.1667 15.5 27.1667C15.6458 27.1667 15.8062 27.1667 15.952 27.1521L16.8125 30.025C16.375 30.0687 15.9375 30.0833 15.5 30.0833C7.44996 30.0833 0.916626 23.55 0.916626 15.5C0.916626 7.44999 7.44996 0.916656 15.5 0.916656C23.55 0.916656 30.0833 7.44999 30.0833 15.5ZM24.5854 21.7125L27.8958 20.6042C28.5666 20.3854 28.552 19.4229 27.8812 19.2187L16.7979 15.8937C16.2437 15.7333 15.7187 16.2437 15.8937 16.7979L19.2187 27.8812C19.4229 28.5667 20.3854 28.5812 20.6041 27.8958L21.7125 24.5854L27.4145 30.2875C27.7062 30.5792 28.1583 30.5792 28.45 30.2875L30.302 28.4354C30.5937 28.1437 30.5937 27.6917 30.302 27.4L24.5854 21.7125Z" fill="white"/>
</svg>
