<svg width="26" height="44" viewBox="0 0 26 44" fill="none" xmlns="http://www.w3.org/2000/svg">
<path d="M15.5 8.52502L17.7 10.725C18.675 11.7 20.25 11.7 21.225 10.725C22.2 9.75002 22.2 8.17502 21.225 7.20002L14.75 0.725024C13.775 -0.249976 12.2 -0.249976 11.225 0.725024L4.775 7.20002C3.8 8.17502 3.8 9.75002 4.775 10.725C5.75 11.7 7.325 11.7 8.3 10.725L10.5 8.52502V19.2C4.8 20.35 0.5 25.4 0.5 31.45C0.5 38.35 6.1 43.95 13 43.95C19.9 43.95 25.5 38.35 25.5 31.45C25.5 25.4 21.2 20.35 15.5 19.2V8.52502Z" fill="#141414"/>
</svg>
