<svg width="60" height="60" viewBox="0 0 60 60" fill="none" xmlns="http://www.w3.org/2000/svg">
<path d="M13.525 32.5L15.725 34.7C16.7 35.675 16.7 37.25 15.725 38.225C14.75 39.2 13.175 39.2 12.2 38.225L5.72503 31.75C4.75003 30.775 4.75002 29.2 5.72502 28.225L12.2 21.775C13.175 20.8 14.75 20.8 15.725 21.775C16.7 22.75 16.7 24.325 15.725 25.3L13.525 27.5L24.2 27.5C25.35 21.8 30.4 17.5 36.45 17.5C43.35 17.5 48.95 23.1 48.95 30C48.95 36.9 43.35 42.5 36.45 42.5C30.4 42.5 25.35 38.2 24.2 32.5L13.525 32.5Z" fill="#141414"/>
</svg>
