<svg width="36" height="35" viewBox="0 0 36 35" fill="none" xmlns="http://www.w3.org/2000/svg">
<path d="M6.49992 30.625C6.49992 31.0382 6.35992 31.3843 6.07992 31.6633C5.80089 31.9433 5.45478 32.0833 5.04159 32.0833C4.62839 32.0833 4.28179 31.9433 4.00179 31.6633C3.72277 31.3843 3.58325 31.0382 3.58325 30.625L3.58325 4.37501C3.58325 3.96182 3.72277 3.61571 4.00179 3.33668C4.28179 3.05668 4.62839 2.91668 5.04159 2.91668C5.45478 2.91668 5.80089 3.05668 6.07992 3.33668C6.35992 3.61571 6.49992 3.96182 6.49992 4.37501L6.49992 30.625ZM32.7499 22.6042C32.7499 23.2118 32.537 23.7281 32.1112 24.1529C31.6863 24.5788 31.1701 24.7917 30.5624 24.7917L11.6041 24.7917C10.9964 24.7917 10.4802 24.5788 10.0553 24.1529C9.6295 23.7281 9.41659 23.2118 9.41659 22.6042C9.41659 21.9965 9.6295 21.4803 10.0553 21.0554C10.4802 20.6296 10.9964 20.4167 11.6041 20.4167L30.5624 20.4167C31.1701 20.4167 31.6863 20.6296 32.1112 21.0554C32.537 21.4803 32.7499 21.9965 32.7499 22.6042ZM23.9999 12.3958C23.9999 13.0035 23.787 13.5197 23.3612 13.9446C22.9363 14.3704 22.4201 14.5833 21.8124 14.5833L11.6041 14.5833C10.9964 14.5833 10.4802 14.3704 10.0553 13.9446C9.6295 13.5197 9.41659 13.0035 9.41659 12.3958C9.41659 11.7882 9.6295 11.272 10.0553 10.8471C10.4802 10.4213 10.9964 10.2083 11.6041 10.2083L21.8124 10.2083C22.4201 10.2083 22.9363 10.4213 23.3612 10.8471C23.787 11.272 23.9999 11.7882 23.9999 12.3958Z" fill="white"/>
</svg>
