<svg width="44" height="26" viewBox="0 0 44 26" fill="none" xmlns="http://www.w3.org/2000/svg">
<path d="M35.475 15.5L33.275 17.7C32.3 18.675 32.3 20.25 33.275 21.225C34.25 22.2 35.825 22.2 36.8 21.225L43.275 14.75C44.25 13.775 44.25 12.2 43.275 11.225L36.8 4.775C35.825 3.8 34.25 3.8 33.275 4.775C32.3 5.75 32.3 7.325 33.275 8.3L35.475 10.5L24.8 10.5C23.65 4.8 18.6 0.499999 12.55 0.499999C5.64998 0.499998 0.0499723 6.1 0.049972 13C0.0499717 19.9 5.64998 25.5 12.55 25.5C18.6 25.5 23.65 21.2 24.8 15.5L35.475 15.5Z" fill="#141414"/>
</svg>
