<svg width="36" height="35" viewBox="0 0 36 35" fill="none" xmlns="http://www.w3.org/2000/svg">
<path d="M10.5417 32.0833C9.73967 32.0833 9.05328 31.798 8.48258 31.2273C7.91091 30.6556 7.62508 29.9687 7.62508 29.1667C7.62508 28.3646 7.91091 27.6777 8.48258 27.106C9.05328 26.5353 9.73967 26.25 10.5417 26.25C11.3438 26.25 12.0302 26.5353 12.6009 27.106C13.1726 27.6777 13.4584 28.3646 13.4584 29.1667C13.4584 29.9687 13.1726 30.6556 12.6009 31.2273C12.0302 31.798 11.3438 32.0833 10.5417 32.0833ZM25.1251 32.0833C24.323 32.0833 23.6366 31.798 23.0659 31.2273C22.4942 30.6556 22.2084 29.9687 22.2084 29.1667C22.2084 28.3646 22.4942 27.6777 23.0659 27.106C23.6366 26.5353 24.323 26.25 25.1251 26.25C25.9272 26.25 26.614 26.5353 27.1857 27.106C27.7564 27.6777 28.0417 28.3646 28.0417 29.1667C28.0417 29.9687 27.7564 30.6556 27.1857 31.2273C26.614 31.798 25.9272 32.0833 25.1251 32.0833ZM9.30217 8.74999L12.8022 16.0417H23.0105L27.0209 8.74999H9.30217ZM10.5417 24.7917C9.448 24.7917 8.62161 24.3114 8.06258 23.3508C7.50355 22.3912 7.47925 21.4375 7.98967 20.4896L9.95842 16.9167L4.70841 5.83332H3.21362C2.80043 5.83332 2.46015 5.69332 2.19279 5.41332C1.92543 5.13429 1.79175 4.78818 1.79175 4.37499C1.79175 3.9618 1.93175 3.6152 2.21175 3.3352C2.49078 3.05617 2.83689 2.91666 3.25008 2.91666H5.61987C5.88723 2.91666 6.14244 2.98957 6.3855 3.13541C6.62855 3.28124 6.81085 3.48784 6.93237 3.7552L7.91675 5.83332H29.4272C30.0834 5.83332 30.5331 6.07638 30.7761 6.56249C31.0192 7.0486 31.007 7.55902 30.7397 8.09374L25.5626 17.4271C25.2952 17.9132 24.9428 18.2899 24.5053 18.5573C24.0678 18.8246 23.5695 18.9583 23.0105 18.9583H12.1459L10.5417 21.875H26.6199C27.0331 21.875 27.3733 22.0145 27.6407 22.2935C27.9081 22.5735 28.0417 22.9201 28.0417 23.3333C28.0417 23.7465 27.9017 24.0926 27.6217 24.3717C27.3427 24.6517 26.9966 24.7917 26.5834 24.7917H10.5417Z" fill="white"/>
</svg>
