<svg width="35" height="35" viewBox="0 0 35 35" fill="none" xmlns="http://www.w3.org/2000/svg">
<path d="M18.2292 17.4271C18.934 16.6493 19.4751 15.7622 19.8523 14.7656C20.2285 13.7691 20.4167 12.7361 20.4167 11.6667C20.4167 10.5972 20.2285 9.56425 19.8523 8.56772C19.4751 7.57119 18.934 6.68404 18.2292 5.90626C19.6875 6.1007 20.9028 6.7448 21.875 7.83855C22.8472 8.9323 23.3333 10.2083 23.3333 11.6667C23.3333 13.125 22.8472 14.4011 21.875 15.4948C20.9028 16.5886 19.6875 17.2326 18.2292 17.4271ZM25.5573 29.1667C25.776 28.9965 25.9462 28.7836 26.0677 28.5279C26.1892 28.2732 26.25 27.9879 26.25 27.6719V24.7917C26.25 23.9167 26.0556 23.0845 25.6667 22.295C25.2778 21.5046 24.7674 20.8056 24.1354 20.1979C25.375 20.6354 26.5237 21.2003 27.5815 21.8925C28.6383 22.5857 29.1667 23.5521 29.1667 24.7917V27.7083C29.1667 28.1215 29.0267 28.4676 28.7467 28.7467C28.4676 29.0267 28.1215 29.1667 27.7083 29.1667H25.5573ZM30.625 18.9583C30.2118 18.9583 29.8657 18.8183 29.5867 18.5383C29.3067 18.2593 29.1667 17.9132 29.1667 17.5V16.0417H27.7083C27.2951 16.0417 26.949 15.9017 26.67 15.6217C26.39 15.3426 26.25 14.9965 26.25 14.5833C26.25 14.1701 26.39 13.8236 26.67 13.5436C26.949 13.2645 27.2951 13.125 27.7083 13.125H29.1667V11.6667C29.1667 11.2535 29.3067 10.9069 29.5867 10.6269C29.8657 10.3479 30.2118 10.2083 30.625 10.2083C31.0382 10.2083 31.3843 10.3479 31.6633 10.6269C31.9433 10.9069 32.0833 11.2535 32.0833 11.6667V13.125H33.5417C33.9549 13.125 34.301 13.2645 34.58 13.5436C34.86 13.8236 35 14.1701 35 14.5833C35 14.9965 34.86 15.3426 34.58 15.6217C34.301 15.9017 33.9549 16.0417 33.5417 16.0417H32.0833V17.5C32.0833 17.9132 31.9433 18.2593 31.6633 18.5383C31.3843 18.8183 31.0382 18.9583 30.625 18.9583ZM11.6667 17.5C10.0625 17.5 8.68924 16.9288 7.54688 15.7865C6.40451 14.6441 5.83333 13.2708 5.83333 11.6667C5.83333 10.0625 6.40451 8.68925 7.54688 7.54689C8.68924 6.40452 10.0625 5.83334 11.6667 5.83334C13.2708 5.83334 14.6441 6.40452 15.7865 7.54689C16.9288 8.68925 17.5 10.0625 17.5 11.6667C17.5 13.2708 16.9288 14.6441 15.7865 15.7865C14.6441 16.9288 13.2708 17.5 11.6667 17.5ZM1.45833 29.1667C1.04514 29.1667 0.699028 29.0267 0.42 28.7467C0.14 28.4676 0 28.1215 0 27.7083V25.0833C0 24.257 0.212917 23.4972 0.63875 22.804C1.06361 22.1117 1.62847 21.5833 2.33333 21.2188C3.84028 20.4653 5.37153 19.8999 6.92708 19.5227C8.48264 19.1465 10.0625 18.9583 11.6667 18.9583C13.2708 18.9583 14.8507 19.1465 16.4062 19.5227C17.9618 19.8999 19.4931 20.4653 21 21.2188C21.7049 21.5833 22.2697 22.1117 22.6946 22.804C23.1204 23.4972 23.3333 24.257 23.3333 25.0833V27.7083C23.3333 28.1215 23.1938 28.4676 22.9148 28.7467C22.6348 29.0267 22.2882 29.1667 21.875 29.1667H1.45833ZM11.6667 14.5833C12.4688 14.5833 13.1556 14.2975 13.7273 13.7258C14.298 13.1551 14.5833 12.4688 14.5833 11.6667C14.5833 10.8646 14.298 10.1782 13.7273 9.60751C13.1556 9.03584 12.4688 8.75001 11.6667 8.75001C10.8646 8.75001 10.1782 9.03584 9.6075 9.60751C9.03583 10.1782 8.75 10.8646 8.75 11.6667C8.75 12.4688 9.03583 13.1551 9.6075 13.7258C10.1782 14.2975 10.8646 14.5833 11.6667 14.5833ZM2.91667 26.25H20.4167V25.0833C20.4167 24.816 20.3501 24.5729 20.2169 24.3542C20.0827 24.1354 19.9062 23.9653 19.6875 23.8438C18.375 23.1875 17.0503 22.6951 15.7135 22.3665C14.3767 22.0388 13.0278 21.875 11.6667 21.875C10.3056 21.875 8.9566 22.0388 7.61979 22.3665C6.28299 22.6951 4.95833 23.1875 3.64583 23.8438C3.42708 23.9653 3.25111 24.1354 3.11792 24.3542C2.98375 24.5729 2.91667 24.816 2.91667 25.0833V26.25Z" fill="white"/>
</svg>
